<svg preserveAspectRatio="none" width="100%" height="100%" overflow="visible" style="display: block;" viewBox="0 0 14 16" fill="none" xmlns="http://www.w3.org/2000/svg">
<g id="Frame">
<g clip-path="url(#clip0_167_195)">
<path id="Vector" d="M0.29375 7.29375C-0.096875 7.68437 -0.096875 8.31875 0.29375 8.70938L5.29375 13.7094C5.68437 14.1 6.31875 14.1 6.70938 13.7094C7.1 13.3188 7.1 12.6844 6.70938 12.2937L3.4125 9H13C13.5531 9 14 8.55313 14 8C14 7.44687 13.5531 7 13 7H3.41563L6.70625 3.70625C7.09688 3.31562 7.09688 2.68125 6.70625 2.29063C6.31563 1.9 5.68125 1.9 5.29063 2.29063L0.290625 7.29063L0.29375 7.29375Z" fill="var(--fill-0, white)"/>
</g>
</g>
<defs>
<clipPath id="clip0_167_195">
<path d="M0 0H14V16H0V0Z" fill="white"/>
</clipPath>
</defs>
</svg>
