<svg preserveAspectRatio="none" width="100%" height="100%" overflow="visible" style="display: block;" viewBox="0 0 10 16" fill="none" xmlns="http://www.w3.org/2000/svg">
<g id="Frame">
<path d="M10 16H0V0H10V16Z" stroke="var(--stroke-0, #E5E7EB)"/>
<path id="Vector" d="M1.25 11H2.75C3.44063 11 4 11.5594 4 12.25V13.75C4 14.4406 3.44063 15 2.75 15H1.25C0.559375 15 0 14.4406 0 13.75V12.25C0 11.5594 0.559375 11 1.25 11ZM7.25 11H8.75C9.44063 11 10 11.5594 10 12.25V13.75C10 14.4406 9.44063 15 8.75 15H7.25C6.55937 15 6 14.4406 6 13.75V12.25C6 11.5594 6.55937 11 7.25 11ZM1.25 10C0.559375 10 0 9.44063 0 8.75V7.25C0 6.55937 0.559375 6 1.25 6H2.75C3.44063 6 4 6.55937 4 7.25V8.75C4 9.44063 3.44063 10 2.75 10H1.25ZM7.25 6H8.75C9.44063 6 10 6.55937 10 7.25V8.75C10 9.44063 9.44063 10 8.75 10H7.25C6.55937 10 6 9.44063 6 8.75V7.25C6 6.55937 6.55937 6 7.25 6ZM1.25 5C0.559375 5 0 4.44063 0 3.75V2.25C0 1.55937 0.559375 1 1.25 1H2.75C3.44063 1 4 1.55937 4 2.25V3.75C4 4.44063 3.44063 5 2.75 5H1.25ZM7.25 1H8.75C9.44063 1 10 1.55937 10 2.25V3.75C10 4.44063 9.44063 5 8.75 5H7.25C6.55937 5 6 4.44063 6 3.75V2.25C6 1.55937 6.55937 1 7.25 1Z" fill="var(--fill-0, #9CA3AF)"/>
</g>
</svg>
