<svg preserveAspectRatio="none" width="100%" height="100%" overflow="visible" style="display: block;" viewBox="0 0 20 16" fill="none" xmlns="http://www.w3.org/2000/svg">
<g id="Frame">
<path d="M20 16H0V0H20V16Z" stroke="var(--stroke-0, #E5E7EB)"/>
<path id="Vector" d="M10.1062 2.6625L7.08125 5.1125C6.57813 5.51875 6.48125 6.25 6.8625 6.77187C7.26563 7.32812 8.05 7.4375 8.59062 7.01562L11.6938 4.60313C11.9125 4.43438 12.225 4.47188 12.3969 4.69063C12.5688 4.90938 12.5281 5.22188 12.3094 5.39375L11.6562 5.9L16 9.9V4H15.9781L15.8562 3.92188L13.5875 2.46875C13.1094 2.1625 12.55 2 11.9812 2C11.3 2 10.6375 2.23437 10.1062 2.6625ZM10.8188 6.55L9.20312 7.80625C8.21875 8.575 6.79062 8.375 6.05312 7.3625C5.35937 6.40938 5.53437 5.07813 6.45 4.3375L9.05 2.23438C8.6875 2.08125 8.29688 2.00312 7.9 2.00312C7.3125 2 6.74062 2.175 6.25 2.5L4 4V11H4.88125L7.7375 13.6062C8.35 14.1656 9.29687 14.1219 9.85625 13.5094C10.0281 13.3187 10.1438 13.0969 10.2031 12.8656L10.7344 13.3531C11.3438 13.9125 12.2937 13.8719 12.8531 13.2625C12.9937 13.1094 13.0969 12.9312 13.1625 12.7469C13.7688 13.1531 14.5937 13.0687 15.1031 12.5125C15.6625 11.9031 15.6219 10.9531 15.0125 10.3938L10.8188 6.55ZM0.5 4C0.225 4 0 4.225 0 4.5V11C0 11.5531 0.446875 12 1 12H2C2.55313 12 3 11.5531 3 11V4H0.5ZM1.5 10C1.63261 10 1.75979 10.0527 1.85355 10.1464C1.94732 10.2402 2 10.3674 2 10.5C2 10.6326 1.94732 10.7598 1.85355 10.8536C1.75979 10.9473 1.63261 11 1.5 11C1.36739 11 1.24021 10.9473 1.14645 10.8536C1.05268 10.7598 1 10.6326 1 10.5C1 10.3674 1.05268 10.2402 1.14645 10.1464C1.24021 10.0527 1.36739 10 1.5 10ZM17 4V11C17 11.5531 17.4469 12 18 12H19C19.5531 12 20 11.5531 20 11V4.5C20 4.225 19.775 4 19.5 4H17ZM18 10.5C18 10.3674 18.0527 10.2402 18.1464 10.1464C18.2402 10.0527 18.3674 10 18.5 10C18.6326 10 18.7598 10.0527 18.8536 10.1464C18.9473 10.2402 19 10.3674 19 10.5C19 10.6326 18.9473 10.7598 18.8536 10.8536C18.7598 10.9473 18.6326 11 18.5 11C18.3674 11 18.2402 10.9473 18.1464 10.8536C18.0527 10.7598 18 10.6326 18 10.5Z" fill="var(--fill-0, #4B5563)"/>
</g>
</svg>
