<svg preserveAspectRatio="none" width="100%" height="100%" overflow="visible" style="display: block;" viewBox="0 0 79 80" fill="none" xmlns="http://www.w3.org/2000/svg">
<g id="Icon Container">
<path d="M62.625 0C71.4616 0 78.625 7.16344 78.625 16V64C78.625 72.8366 71.4616 80 62.625 80H16C7.16344 80 1.2886e-07 72.8366 0 64V16C0 7.16344 7.16344 1.34891e-07 16 0H62.625Z" fill="var(--fill-0, #1E293B)"/>
<path d="M62.625 0C71.4616 0 78.625 7.16344 78.625 16V64C78.625 72.8366 71.4616 80 62.625 80H16C7.16344 80 1.2886e-07 72.8366 0 64V16C0 7.16344 7.16344 1.34891e-07 16 0H62.625Z" stroke="var(--stroke-0, #E5E7EB)"/>
<path id="Vector" d="M29 28.75C29 26.6816 30.6816 25 32.75 25H45.875C47.9434 25 49.625 26.6816 49.625 28.75V51.25C49.625 53.3184 47.9434 55 45.875 55H32.75C30.6816 55 29 53.3184 29 51.25V28.75ZM41.1875 51.25C41.1875 50.7527 40.99 50.2758 40.6383 49.9242C40.2867 49.5725 39.8098 49.375 39.3125 49.375C38.8152 49.375 38.3383 49.5725 37.9867 49.9242C37.635 50.2758 37.4375 50.7527 37.4375 51.25C37.4375 51.7473 37.635 52.2242 37.9867 52.5758C38.3383 52.9275 38.8152 53.125 39.3125 53.125C39.8098 53.125 40.2867 52.9275 40.6383 52.5758C40.99 52.2242 41.1875 51.7473 41.1875 51.25ZM45.875 28.75H32.75V47.5H45.875V28.75Z" fill="var(--fill-0, white)"/>
</g>
</svg>
