<svg preserveAspectRatio="none" width="100%" height="100%" overflow="visible" style="display: block;" viewBox="0 0 30 24" fill="none" xmlns="http://www.w3.org/2000/svg">
<g id="Frame">
<g clip-path="url(#clip0_167_177)">
<path id="Vector" d="M22.5 13.5C20.1516 13.5 18.1125 14.85 17.1281 16.8187L6.22969 5.92031L6.25781 5.89219L9.075 3.075C13.1766 -1.02656 19.8234 -1.02656 23.925 3.075C27.0703 6.22031 27.8016 10.8703 26.1188 14.7141C25.1156 13.95 23.8594 13.5 22.5 13.5ZM5.31094 7.12031L16.5984 18.4078C16.5328 18.7594 16.5 19.125 16.5 19.5C16.5 20.5875 16.7906 21.6047 17.2922 22.4859C17.1516 22.4953 17.0063 22.5 16.8609 22.5H16.7344C15.1453 22.5 13.6172 21.8672 12.4922 20.7422L12.0328 20.2828C11.4188 19.6688 10.4109 19.7016 9.83906 20.3625L7.13437 23.4844C6.8625 23.7984 6.46875 23.9859 6.05625 24C5.64375 24.0141 5.23594 23.8547 4.94063 23.5594L3.44063 22.0594C3.14531 21.7641 2.98594 21.3609 3 20.9437C3.01406 20.5266 3.20156 20.1375 3.51563 19.8656L6.6375 17.1609C7.29375 16.5891 7.33125 15.5812 6.71719 14.9672L6.25781 14.5078C5.13281 13.3828 4.5 11.8547 4.5 10.2656V10.1391C4.5 9.07031 4.78594 8.03437 5.31094 7.125V7.12031ZM22.5 15C23.6935 15 24.8381 15.4741 25.682 16.318C26.5259 17.1619 27 18.3065 27 19.5C27 20.6935 26.5259 21.8381 25.682 22.682C24.8381 23.5259 23.6935 24 22.5 24C21.3065 24 20.1619 23.5259 19.318 22.682C18.4741 21.8381 18 20.6935 18 19.5C18 18.3065 18.4741 17.1619 19.318 16.318C20.1619 15.4741 21.3065 15 22.5 15Z" fill="var(--fill-0, #9CA3AF)"/>
</g>
</g>
<defs>
<clipPath id="clip0_167_177">
<path d="M0 0H30V24H0V0Z" fill="white"/>
</clipPath>
</defs>
</svg>
