<svg preserveAspectRatio="none" width="100%" height="100%" overflow="visible" style="display: block;" viewBox="0 0 23 30" fill="none" xmlns="http://www.w3.org/2000/svg">
<g id="Frame">
<path d="M22.5 30H0V0H22.5V30Z" stroke="var(--stroke-0, #E5E7EB)"/>
<path id="Vector" d="M0.9375 3.75C0.9375 1.68164 2.61914 0 4.6875 0H17.8125C19.8809 0 21.5625 1.68164 21.5625 3.75V26.25C21.5625 28.3184 19.8809 30 17.8125 30H4.6875C2.61914 30 0.9375 28.3184 0.9375 26.25V3.75ZM13.125 26.25C13.125 25.7527 12.9275 25.2758 12.5758 24.9242C12.2242 24.5725 11.7473 24.375 11.25 24.375C10.7527 24.375 10.2758 24.5725 9.92418 24.9242C9.57254 25.2758 9.375 25.7527 9.375 26.25C9.375 26.7473 9.57254 27.2242 9.92418 27.5758C10.2758 27.9275 10.7527 28.125 11.25 28.125C11.7473 28.125 12.2242 27.9275 12.5758 27.5758C12.9275 27.2242 13.125 26.7473 13.125 26.25ZM17.8125 3.75H4.6875V22.5H17.8125V3.75Z" fill="var(--fill-0, white)"/>
</g>
</svg>
