<svg preserveAspectRatio="none" width="100%" height="100%" overflow="visible" style="display: block;" viewBox="0 0 24 24" fill="none" xmlns="http://www.w3.org/2000/svg">
<g id="Icon Container">
<path d="M24 24H0V0H24V24Z" stroke="var(--stroke-0, #E5E7EB)"/>
<path id="Vector" d="M9.50898 5.67278C9.29844 5.16419 8.74336 4.89349 8.21289 5.03841L5.80664 5.69466C5.33086 5.82591 5 6.25794 5 6.75013C5 13.515 10.4852 19.0001 17.25 19.0001C17.7422 19.0001 18.1742 18.6693 18.3055 18.1935L18.9617 15.7872C19.1066 15.2568 18.8359 14.7017 18.3273 14.4911L15.7023 13.3974C15.2566 13.2115 14.7398 13.34 14.4363 13.7146L13.3316 15.0626C11.4066 14.1521 9.84805 12.5935 8.9375 10.6685L10.2855 9.56653C10.6602 9.26028 10.7887 8.74622 10.6027 8.30052L9.50898 5.67552V5.67278Z" fill="var(--fill-0, #9CA3AF)"/>
</g>
</svg>
