<svg preserveAspectRatio="none" width="100%" height="100%" overflow="visible" style="display: block;" viewBox="0 0 14 14" fill="none" xmlns="http://www.w3.org/2000/svg">
<g id="Frame">
<g clip-path="url(#clip0_45_124)">
<path id="Vector" d="M4.50898 0.672656C4.29844 0.164063 3.74336 -0.106641 3.21289 0.0382812L0.806641 0.694531C0.330859 0.825781 0 1.25781 0 1.75C0 8.51484 5.48516 14 12.25 14C12.7422 14 13.1742 13.6691 13.3055 13.1934L13.9617 10.7871C14.1066 10.2566 13.8359 9.70156 13.3273 9.49102L10.7023 8.39727C10.2566 8.21133 9.73984 8.33984 9.43633 8.71445L8.33164 10.0625C6.40664 9.15195 4.84805 7.59336 3.9375 5.66836L5.28555 4.56641C5.66016 4.26016 5.78867 3.74609 5.60273 3.30039L4.50898 0.675391V0.672656Z" fill="var(--fill-0, #9CA3AF)"/>
</g>
</g>
<defs>
<clipPath id="clip0_45_124">
<path d="M0 0H14V14H0V0Z" fill="white"/>
</clipPath>
</defs>
</svg>
