<svg preserveAspectRatio="none" width="100%" height="100%" overflow="visible" style="display: block;" viewBox="0 0 14 16" fill="none" xmlns="http://www.w3.org/2000/svg">
<g id="Frame">
<g clip-path="url(#clip0_167_189)">
<path id="Vector" d="M7.70625 0.29375C7.31563 -0.096875 6.68125 -0.096875 6.29063 0.29375L2.29063 4.29375C1.9 4.68437 1.9 5.31875 2.29063 5.70938C2.68125 6.1 3.31562 6.1 3.70625 5.70938L6 3.41563V10C6 10.5531 6.44687 11 7 11C7.55313 11 8 10.5531 8 10V3.41563L10.2937 5.70938C10.6844 6.1 11.3188 6.1 11.7094 5.70938C12.1 5.31875 12.1 4.68437 11.7094 4.29375L7.70937 0.29375H7.70625ZM2 11C2 10.4469 1.55313 10 1 10C0.446875 10 0 10.4469 0 11V13C0 14.6563 1.34375 16 3 16H11C12.6562 16 14 14.6563 14 13V11C14 10.4469 13.5531 10 13 10C12.4469 10 12 10.4469 12 11V13C12 13.5531 11.5531 14 11 14H3C2.44687 14 2 13.5531 2 13V11Z" fill="var(--fill-0, white)"/>
</g>
</g>
<defs>
<clipPath id="clip0_167_189">
<path d="M0 0H14V16H0V0Z" fill="white"/>
</clipPath>
</defs>
</svg>
