<svg preserveAspectRatio="none" width="100%" height="100%" overflow="visible" style="display: block;" viewBox="0 0 18 14" fill="none" xmlns="http://www.w3.org/2000/svg">
<g id="Frame">
<path d="M17.5 14H0V0H17.5V14Z" stroke="var(--stroke-0, #E5E7EB)"/>
<path id="Vector" d="M15.75 0C16.234 0 16.625 0.391016 16.625 0.875V13.125C16.625 13.609 16.234 14 15.75 14C15.266 14 14.875 13.609 14.875 13.125V0.875C14.875 0.391016 15.266 0 15.75 0ZM12.25 2.625C12.734 2.625 13.125 3.01602 13.125 3.5V13.125C13.125 13.609 12.734 14 12.25 14C11.766 14 11.375 13.609 11.375 13.125V3.5C11.375 3.01602 11.766 2.625 12.25 2.625ZM9.625 6.125V13.125C9.625 13.609 9.23398 14 8.75 14C8.26602 14 7.875 13.609 7.875 13.125V6.125C7.875 5.64102 8.26602 5.25 8.75 5.25C9.23398 5.25 9.625 5.64102 9.625 6.125ZM5.25 7.875C5.73398 7.875 6.125 8.26602 6.125 8.75V13.125C6.125 13.609 5.73398 14 5.25 14C4.76602 14 4.375 13.609 4.375 13.125V8.75C4.375 8.26602 4.76602 7.875 5.25 7.875ZM2.625 11.375V13.125C2.625 13.609 2.23398 14 1.75 14C1.26602 14 0.875 13.609 0.875 13.125V11.375C0.875 10.891 1.26602 10.5 1.75 10.5C2.23398 10.5 2.625 10.891 2.625 11.375Z" fill="var(--fill-0, white)"/>
</g>
</svg>
