<svg preserveAspectRatio="none" width="100%" height="100%" overflow="visible" style="display: block;" viewBox="0 0 11 14" fill="none" xmlns="http://www.w3.org/2000/svg">
<g id="Frame">
<g clip-path="url(#clip0_71_913)">
<path id="Vector" d="M0.4375 1.75C0.4375 0.784766 1.22227 0 2.1875 0H8.3125C9.27773 0 10.0625 0.784766 10.0625 1.75V12.25C10.0625 13.2152 9.27773 14 8.3125 14H2.1875C1.22227 14 0.4375 13.2152 0.4375 12.25V1.75ZM6.125 12.25C6.125 12.0179 6.03281 11.7954 5.86872 11.6313C5.70462 11.4672 5.48206 11.375 5.25 11.375C5.01794 11.375 4.79538 11.4672 4.63128 11.6313C4.46719 11.7954 4.375 12.0179 4.375 12.25C4.375 12.4821 4.46719 12.7046 4.63128 12.8687C4.79538 13.0328 5.01794 13.125 5.25 13.125C5.48206 13.125 5.70462 13.0328 5.86872 12.8687C6.03281 12.7046 6.125 12.4821 6.125 12.25ZM8.3125 1.75H2.1875V10.5H8.3125V1.75Z" fill="var(--fill-0, #1E293B)"/>
</g>
</g>
<defs>
<clipPath id="clip0_71_913">
<path d="M0 0H10.5V14H0V0Z" fill="white"/>
</clipPath>
</defs>
</svg>
