<svg preserveAspectRatio="none" width="100%" height="100%" overflow="visible" style="display: block;" viewBox="0 0 2 14" fill="none" xmlns="http://www.w3.org/2000/svg">
<g id="Frame">
<g clip-path="url(#clip0_167_174)">
<path id="Vector" d="M1.75 1.75C1.75 1.26602 1.35898 0.875 0.875 0.875C0.391016 0.875 0 1.26602 0 1.75V8.75C0 9.23398 0.391016 9.625 0.875 9.625C1.35898 9.625 1.75 9.23398 1.75 8.75V1.75ZM0.875 13.125C1.16508 13.125 1.44328 13.0098 1.6484 12.8046C1.85352 12.5995 1.96875 12.3213 1.96875 12.0312C1.96875 11.7412 1.85352 11.463 1.6484 11.2579C1.44328 11.0527 1.16508 10.9375 0.875 10.9375C0.584919 10.9375 0.30672 11.0527 0.101602 11.2579C-0.103516 11.463 -0.21875 11.7412 -0.21875 12.0312C-0.21875 12.3213 -0.103516 12.5995 0.101602 12.8046C0.30672 13.0098 0.584919 13.125 0.875 13.125Z" fill="var(--fill-0, #F59E0B)"/>
</g>
</g>
<defs>
<clipPath id="clip0_167_174">
<path d="M0 0H1.75V14H0V0Z" fill="white"/>
</clipPath>
</defs>
</svg>
