<svg preserveAspectRatio="none" width="100%" height="100%" overflow="visible" style="display: block;" viewBox="0 0 16 14" fill="none" xmlns="http://www.w3.org/2000/svg">
<g id="Frame">
<g clip-path="url(#clip0_167_192)">
<path id="Vector" d="M12.6875 4.375C12.9281 4.375 13.125 4.57187 13.125 4.8125V9.1875C13.125 9.42813 12.9281 9.625 12.6875 9.625H2.1875C1.94687 9.625 1.75 9.42813 1.75 9.1875V4.8125C1.75 4.57187 1.94687 4.375 2.1875 4.375H12.6875ZM2.1875 2.625C0.978906 2.625 0 3.60391 0 4.8125V9.1875C0 10.3961 0.978906 11.375 2.1875 11.375H12.6875C13.8961 11.375 14.875 10.3961 14.875 9.1875V8.75C15.359 8.75 15.75 8.35898 15.75 7.875V6.125C15.75 5.64102 15.359 5.25 14.875 5.25V4.8125C14.875 3.60391 13.8961 2.625 12.6875 2.625H2.1875ZM12.25 5.25H2.625V8.75H12.25V5.25Z" fill="var(--fill-0, white)"/>
</g>
</g>
<defs>
<clipPath id="clip0_167_192">
<path d="M0 0H15.75V14H0V0Z" fill="white"/>
</clipPath>
</defs>
</svg>
